<svg width="46" height="45" viewBox="0 0 46 45" fill="none" xmlns="http://www.w3.org/2000/svg">
<path d="M45.591 22.4432C45.591 10.0481 35.5428 0 23.1478 0C10.7527 0 0.70459 10.0481 0.70459 22.4432C0.70459 33.6452 8.91178 42.93 19.641 44.6137V28.9307H13.9426V22.4432H19.641V17.4987C19.641 11.8738 22.9916 8.76686 28.1181 8.76686C30.5737 8.76686 33.142 9.20521 33.142 9.20521V14.7283H30.312C27.524 14.7283 26.6545 16.4583 26.6545 18.2332V22.4432H32.879L31.884 28.9307H26.6545V44.6137C37.3839 42.93 45.591 33.6452 45.591 22.4432Z" fill="#1877F2"/>
<path d="M31.8839 28.9306L32.8789 22.4432H26.6545V18.2331C26.6545 16.4583 27.5239 14.7283 30.3119 14.7283H33.1419V9.20519C33.1419 9.20519 30.5735 8.76685 28.1181 8.76685C22.9916 8.76685 19.641 11.8738 19.641 17.4986V22.4432H13.9425V28.9306H19.641V44.6137C20.7836 44.793 21.9547 44.8863 23.1477 44.8863C24.3407 44.8863 25.5118 44.793 26.6545 44.6137V28.9306H31.8839Z" fill="white"/>
</svg>
