<svg width="46" height="45" viewBox="0 0 46 45" fill="none" xmlns="http://www.w3.org/2000/svg">
<path fill-rule="evenodd" clip-rule="evenodd" d="M37.5256 10.4631C37.5256 11.9506 36.3197 13.1563 34.8325 13.1563C33.3453 13.1563 32.1393 11.9506 32.1393 10.4631C32.1393 8.97552 33.3453 7.7699 34.8325 7.7699C36.32 7.7699 37.5256 8.97552 37.5256 10.4631ZM22.8524 29.9241C18.7207 29.9241 15.3714 26.5748 15.3714 22.4432C15.3714 18.3115 18.7207 14.9622 22.8524 14.9622C26.984 14.9622 30.3333 18.3115 30.3333 22.4432C30.3333 26.5748 26.984 29.9241 22.8524 29.9241ZM22.8524 10.9183C16.4873 10.9183 11.3274 16.0781 11.3274 22.4432C11.3274 28.8083 16.4873 33.9681 22.8524 33.9681C29.2175 33.9681 34.3773 28.8083 34.3773 22.4432C34.3773 16.0781 29.2175 10.9183 22.8524 10.9183ZM22.8524 4.04398C28.845 4.04398 29.5548 4.06677 31.9212 4.17478C34.1094 4.27472 35.2978 4.64013 36.0886 4.94767C37.136 5.3548 37.8837 5.84119 38.6692 6.6267C39.4547 7.41186 39.9411 8.1595 40.3482 9.20732C40.6554 9.99809 41.0212 11.1865 41.1211 13.3747C41.2291 15.7414 41.2519 16.4512 41.2519 22.4439C41.2519 28.4366 41.2291 29.1463 41.1211 31.5127C41.0212 33.7009 40.6558 34.8893 40.3482 35.6801C39.9411 36.7276 39.4547 37.4752 38.6692 38.2607C37.884 39.0462 37.1364 39.5326 36.0886 39.9397C35.2978 40.2469 34.1094 40.6127 31.9212 40.7126C29.5548 40.8206 28.845 40.8434 22.8524 40.8434C16.8593 40.8434 16.1496 40.8206 13.7832 40.7126C11.595 40.6127 10.4066 40.2473 9.61579 39.9397C8.56833 39.5326 7.82069 39.0462 7.03518 38.2607C6.25002 37.4756 5.76328 36.7279 5.35615 35.6801C5.04896 34.8893 4.6832 33.7009 4.58326 31.5127C4.47525 29.146 4.45246 28.4362 4.45246 22.4439C4.45246 16.4512 4.47525 15.7414 4.58326 13.3747C4.6832 11.1865 5.04861 9.99809 5.35615 9.20732C5.76328 8.15985 6.24967 7.41221 7.03518 6.6267C7.82034 5.84119 8.56798 5.3548 9.61579 4.94767C10.4066 4.64048 11.595 4.27472 13.7832 4.17478C16.1499 4.06677 16.8597 4.04398 22.8524 4.04398ZM22.8524 0C16.7573 0 15.9928 0.0259499 13.5991 0.13501C11.2103 0.24407 9.57862 0.6235 8.15138 1.17827C6.67539 1.75162 5.42383 2.51925 4.17613 3.76695C2.92843 5.01465 2.1608 6.26621 1.58745 7.7422C1.03268 9.16979 0.653249 10.8011 0.544189 13.1899C0.43513 15.5836 0.40918 16.3481 0.40918 22.4432C0.40918 28.5383 0.43513 29.3027 0.544189 31.6964C0.653249 34.0852 1.03268 35.7166 1.58745 37.1442C2.1608 38.6202 2.92843 39.8717 4.17613 41.1194C5.42383 42.3671 6.67539 43.1344 8.15138 43.7081C9.57897 44.2629 11.2103 44.6423 13.5991 44.7514C15.9928 44.8604 16.7573 44.8864 22.8524 44.8864C28.9474 44.8864 29.7119 44.8604 32.1056 44.7514C34.4944 44.6423 36.1257 44.2629 37.5533 43.7081C39.0293 43.1344 40.2809 42.3671 41.5286 41.1194C42.7763 39.8717 43.5436 38.6202 44.1173 37.1442C44.672 35.7166 45.0515 34.0852 45.1605 31.6964C45.2696 29.3027 45.2955 28.5383 45.2955 22.4432C45.2955 16.3481 45.2696 15.5836 45.1605 13.1899C45.0515 10.8011 44.672 9.16979 44.1173 7.7422C43.5436 6.26621 42.7763 5.01465 41.5286 3.76695C40.2809 2.51925 39.0293 1.75197 37.5533 1.17827C36.1257 0.6235 34.4944 0.24407 32.1056 0.13501C29.7119 0.0259499 28.9474 0 22.8524 0Z" fill="url(#paint0_radial_11_95)"/>
<defs>
<radialGradient id="paint0_radial_11_95" cx="0" cy="0" r="1" gradientUnits="userSpaceOnUse" gradientTransform="translate(7.11096 45.0422) scale(57.3535)">
<stop stop-color="#FFB140"/>
<stop offset="0.2559" stop-color="#FF5445"/>
<stop offset="0.599" stop-color="#FC2B82"/>
<stop offset="1" stop-color="#8E40B7"/>
</radialGradient>
</defs>
</svg>
