<svg width="45" height="37" viewBox="0 0 45 37" fill="none" xmlns="http://www.w3.org/2000/svg">
<path d="M14.1516 36.4431C31.1328 36.4431 40.4208 22.5917 40.4208 10.5797C40.4208 10.1863 40.4208 9.79466 40.3938 9.40474C42.2007 8.11791 43.7605 6.52474 45 4.69959C43.315 5.43469 41.5274 5.91668 39.6972 6.12972C41.6241 4.99406 43.0672 3.20646 43.7562 1.10198C41.944 2.16071 39.9611 2.90697 37.8936 3.3084C36.1479 1.48073 33.7098 0.443115 31.1618 0.443115C26.0921 0.443115 21.9205 4.55032 21.9205 9.54155C21.9205 10.234 22.0009 10.9243 22.1598 11.5987C14.7402 11.2326 7.81778 7.77731 3.13198 2.10152C0.695302 6.2314 1.95609 11.5835 5.99036 14.2357C4.52127 14.1929 3.08373 13.8026 1.8 13.098V13.2131C1.80123 17.5237 4.91546 21.2703 9.20698 22.1238C7.84784 22.4887 6.42146 22.542 5.03824 22.2797C6.24472 25.9734 9.72378 28.5195 13.6638 28.5923C10.3952 31.1214 6.35511 32.4952 2.19779 32.4911C1.4632 32.4898 0.729316 32.446 0 32.36C4.22174 35.0273 9.13535 36.4426 14.1516 36.436" fill="#1DA1F2"/>
</svg>
