<svg width="45" height="32" viewBox="0 0 45 32" fill="none" xmlns="http://www.w3.org/2000/svg">
<g clip-path="url(#clip0_11_78)">
<path d="M43.7506 5.32379C43.2404 3.42555 41.7376 1.9306 39.8289 1.42326C36.3702 0.501221 22.4999 0.501221 22.4999 0.501221C22.4999 0.501221 8.62979 0.501221 5.17087 1.42326C3.26222 1.9306 1.759 3.42555 1.24924 5.32379C0.32251 8.76443 0.32251 15.9433 0.32251 15.9433C0.32251 15.9433 0.32251 23.1217 1.24924 26.5627C1.759 28.4612 3.26222 29.9557 5.17068 30.4636C8.6296 31.3853 22.4997 31.3853 22.4997 31.3853C22.4997 31.3853 36.37 31.3853 39.8287 30.4636C41.7374 29.9559 43.2402 28.4612 43.7504 26.5629C44.6773 23.1219 44.6773 15.9435 44.6773 15.9435C44.6773 15.9435 44.6773 8.76461 43.7504 5.32398" fill="#FF0000"/>
<path d="M17.9636 22.4611L29.5563 15.9437L17.9636 9.42554V22.4611Z" fill="white"/>
</g>
<defs>
<clipPath id="clip0_11_78">
<rect width="45" height="31" fill="white" transform="translate(0 0.443115)"/>
</clipPath>
</defs>
</svg>
